<svg id="Layer_1" data-name="Layer 1" xmlns="http://www.w3.org/2000/svg" viewBox="0 0 1248.29 525.06"><defs><style>.cls-1{fill:#f57328;}.cls-2{fill:#d3e4cd;}</style></defs><path class="cls-1" d="M593.81,803l-13.52-51.82c-59.52,22.94-110.08,27.71-151.77,19.67l-19.4,55C460.58,834.37,522.13,828.59,593.81,803Z" transform="translate(-211.71 -304.46)"/><path class="cls-1" d="M390.08,374.36l-29.51-49.71c-92.47,39.51-142,131.54-148.2,226.35h68.57C285.83,477.05,322.41,405.66,390.08,374.36Z" transform="translate(-211.71 -304.46)"/><path class="cls-1" d="M280.45,574H211.71c.89,109.3,59.17,217,175.34,247.18l19.71-55.93C324.15,738.44,282.33,657.06,280.45,574Z" transform="translate(-211.71 -304.46)"/><path class="cls-1" d="M578.79,380.88l15.77-53.32c-84.38-28.21-154.87-28.87-211.42-11.22l29.39,49.5C456.91,352.43,512.37,354.77,578.79,380.88Z" transform="translate(-211.71 -304.46)"/><path class="cls-2" d="M553.53,714l-8.44-32.35c-34.82,13.42-64.73,16.88-89.78,13.13l-12.07,34.24C474.33,733.22,511.08,729.2,553.53,714Z" transform="translate(-211.71 -304.46)"/><path class="cls-2" d="M431.57,444.23,413.2,413.3C354,435.92,321.51,492.09,315.89,551h42.82C363.4,505.06,387.81,461.69,431.57,444.23Z" transform="translate(-211.71 -304.46)"/><path class="cls-2" d="M358,574H315.06c1.52,66.17,36.78,130.75,106.07,150.49l12.38-35.13C385,671.92,360,623.73,358,574Z" transform="translate(-211.71 -304.46)"/><path class="cls-2" d="M544.15,450.54,554,417.25c-45.63-15.25-84.76-17.6-117.36-10.8l18.58,31.29C480.14,433.72,509.8,437,544.15,450.54Z" transform="translate(-211.71 -304.46)"/><path d="M530.73,650.69l-4.84-18.57c-19.82,7.64-36.86,9.66-51.16,7.6l-6.93,19.65C485.57,661.68,506.54,659.34,530.73,650.69Z" transform="translate(-211.71 -304.46)"/><path d="M395.06,551h24.67c4.17-24.45,18.29-46.69,42.19-55.65l-10.53-17.73C418.72,489.53,399.91,519.07,395.06,551Z" transform="translate(-211.71 -304.46)"/><path d="M446.08,653.71l7.37-20.92c-21.26-11.55-32.78-34.59-34.74-58.79H394C395.88,607.82,413.21,640.27,446.08,653.71Z" transform="translate(-211.71 -304.46)"/><path d="M525.35,499.44,531,480.33c-20.75-6.94-39.14-9.21-55.2-7.93L487,491.18C498.35,491.31,511.15,493.85,525.35,499.44Z" transform="translate(-211.71 -304.46)"/><path d="M630.35,482.38l75.92,167h-23l-18.67-41.15H596.35L577.9,649.37H555.06Zm-.06,50.19-25.73,57.35h51.73Z" transform="translate(-211.71 -304.46)"/><path d="M726.72,488.56h39q46.34,0,68.92,24.49T857.24,569q0,31.68-23.35,56T766,649.37H726.72Zm22,21.46V627.66c16,.05,30-.69,38.12-2.21,27.25-4.77,48.11-28,47.72-56.48.61-22.51-15-46.65-35.54-53.77Q784.42,510,759.79,510Z" transform="translate(-211.71 -304.46)"/><path d="M880.84,488.56H970v22H902.55v40.14H970v21.71H902.55v55.28H970v21.71H880.84Z" transform="translate(-211.71 -304.46)"/><path class="cls-1" d="M746,725.7v67.47h-8.71V725.7Z" transform="translate(-211.71 -304.46)"/><path class="cls-1" d="M761.91,757.83c0-5-.1-9.11-.4-13.11h7.81l.5,8h.2a17.79,17.79,0,0,1,16-9.11c6.71,0,17.12,4,17.12,20.62v28.93h-8.81V765.24c0-7.8-2.9-14.31-11.21-14.31a12.5,12.5,0,0,0-11.81,9,12.65,12.65,0,0,0-.6,4.1v29.13h-8.81Z" transform="translate(-211.71 -304.46)"/><path class="cls-1" d="M819.57,744.72,829.08,772A123,123,0,0,1,833,784.36h.3c1.1-4,2.5-8,4.11-12.41l9.41-27.23H856l-19,48.45h-8.41l-18.42-48.45Z" transform="translate(-211.71 -304.46)"/><path class="cls-1" d="M868.23,770.55c.2,11.91,7.81,16.82,16.62,16.82a31.87,31.87,0,0,0,13.41-2.5l1.51,6.3c-3.11,1.4-8.41,3-16.12,3-14.92,0-23.83-9.82-23.83-24.43s8.61-26.13,22.73-26.13c15.81,0,20,13.91,20,22.82a33.22,33.22,0,0,1-.3,4.11Zm25.83-6.31c.1-5.6-2.3-14.31-12.21-14.31-8.92,0-12.82,8.2-13.52,14.31Z" transform="translate(-211.71 -304.46)"/><path class="cls-1" d="M912.28,784.17a23.1,23.1,0,0,0,11.61,3.5c6.41,0,9.41-3.2,9.41-7.21,0-4.2-2.5-6.51-9-8.91-8.71-3.1-12.81-7.91-12.81-13.72,0-7.8,6.3-14.21,16.72-14.21a24.2,24.2,0,0,1,11.91,3l-2.2,6.41a18.91,18.91,0,0,0-9.91-2.8c-5.21,0-8.11,3-8.11,6.6,0,4,2.9,5.81,9.21,8.21,8.41,3.21,12.71,7.41,12.71,14.62,0,8.51-6.61,14.52-18.12,14.52a27.61,27.61,0,0,1-13.61-3.31Z" transform="translate(-211.71 -304.46)"/><path class="cls-1" d="M963.74,730.8v13.92h12.61v6.71H963.74v26.13c0,6,1.7,9.41,6.6,9.41a19.6,19.6,0,0,0,5.11-.6l.4,6.61a21.56,21.56,0,0,1-7.81,1.2c-4.1,0-7.41-1.31-9.51-3.71-2.5-2.6-3.4-6.91-3.4-12.61V751.43h-7.51v-6.71h7.51V733.11Z" transform="translate(-211.71 -304.46)"/><path class="cls-1" d="M986.26,757.83c0-5-.1-9.11-.4-13.11h7.71l.4,7.81h.3c2.7-4.61,7.21-8.91,15.22-8.91a14.31,14.31,0,0,1,13.71,9.71h.21a20,20,0,0,1,5.4-6.31,16.55,16.55,0,0,1,10.71-3.4c6.41,0,15.92,4.2,15.92,21v28.53h-8.61V765.74c0-9.31-3.4-14.91-10.51-14.91-5,0-8.91,3.7-10.41,8a14.49,14.49,0,0,0-.7,4.4v29.93h-8.61v-29c0-7.71-3.41-13.31-10.11-13.31-5.51,0-9.52,4.4-10.92,8.81a12.13,12.13,0,0,0-.7,4.3v29.23h-8.61Z" transform="translate(-211.71 -304.46)"/><path class="cls-1" d="M1074.66,770.55c.2,11.91,7.81,16.82,16.62,16.82a31.93,31.93,0,0,0,13.42-2.5l1.5,6.3c-3.1,1.4-8.41,3-16.12,3-14.92,0-23.83-9.82-23.83-24.43s8.61-26.13,22.73-26.13c15.82,0,20,13.91,20,22.82a33.22,33.22,0,0,1-.3,4.11Zm25.83-6.31c.1-5.6-2.3-14.31-12.21-14.31-8.91,0-12.81,8.2-13.52,14.31Z" transform="translate(-211.71 -304.46)"/><path class="cls-1" d="M1119.91,757.83c0-5-.1-9.11-.4-13.11h7.81l.5,8h.2a17.82,17.82,0,0,1,16-9.11c6.71,0,17.12,4,17.12,20.62v28.93h-8.81V765.24c0-7.8-2.9-14.31-11.21-14.31a12.5,12.5,0,0,0-11.81,9,12.38,12.38,0,0,0-.61,4.1v29.13h-8.81Z" transform="translate(-211.71 -304.46)"/><path class="cls-1" d="M1185.69,730.8v13.92h12.61v6.71h-12.61v26.13c0,6,1.7,9.41,6.61,9.41a19.58,19.58,0,0,0,5.1-.6l.4,6.61a21.56,21.56,0,0,1-7.81,1.2c-4.1,0-7.4-1.31-9.51-3.71-2.5-2.6-3.4-6.91-3.4-12.61V751.43h-7.51v-6.71h7.51V733.11Z" transform="translate(-211.71 -304.46)"/><path class="cls-1" d="M1207,784.17a23.14,23.14,0,0,0,11.62,3.5c6.41,0,9.41-3.2,9.41-7.21,0-4.2-2.51-6.51-9-8.91-8.71-3.1-12.82-7.91-12.82-13.72,0-7.8,6.31-14.21,16.72-14.21a24.24,24.24,0,0,1,11.92,3l-2.21,6.41a18.85,18.85,0,0,0-9.91-2.8c-5.2,0-8.11,3-8.11,6.6,0,4,2.91,5.81,9.21,8.21,8.41,3.21,12.72,7.41,12.72,14.62,0,8.51-6.61,14.52-18.12,14.52a27.68,27.68,0,0,1-13.62-3.31Z" transform="translate(-211.71 -304.46)"/><path class="cls-1" d="M1316.54,791c-3.21,1.6-9.61,3.21-17.82,3.21-19,0-33.34-12-33.34-34.14,0-21.13,14.31-35.44,35.24-35.44,8.41,0,13.72,1.8,16,3l-2.11,7.11a31.7,31.7,0,0,0-13.61-2.8c-15.82,0-26.33,10.11-26.33,27.83,0,16.52,9.51,27.13,25.93,27.13a34.75,34.75,0,0,0,14.22-2.81Z" transform="translate(-211.71 -304.46)"/><path class="cls-1" d="M1369.9,768.55c0,17.92-12.42,25.73-24.13,25.73-13.12,0-23.23-9.61-23.23-24.93,0-16.22,10.62-25.73,24-25.73C1360.49,743.62,1369.9,753.73,1369.9,768.55Zm-38.45.5c0,10.61,6.11,18.62,14.72,18.62,8.41,0,14.72-7.91,14.72-18.82,0-8.21-4.11-18.62-14.52-18.62S1331.45,759.84,1331.45,769.05Z" transform="translate(-211.71 -304.46)"/><path class="cls-1" d="M1381,759.84c0-5.71-.1-10.62-.4-15.12h7.71l.3,9.51h.4c2.2-6.51,7.51-10.61,13.41-10.61a9.65,9.65,0,0,1,2.51.3v8.31a13.31,13.31,0,0,0-3-.3c-6.21,0-10.61,4.7-11.81,11.31a24.79,24.79,0,0,0-.4,4.11v25.82H1381Z" transform="translate(-211.71 -304.46)"/><path class="cls-1" d="M1414.15,760.54c0-6.21-.2-11.22-.4-15.82h7.91l.4,8.31h.2c3.6-5.91,9.31-9.41,17.22-9.41,11.71,0,20.52,9.91,20.52,24.63,0,17.42-10.61,26-22,26-6.4,0-12-2.81-14.91-7.61h-.2V813h-8.71Zm8.71,12.91a19.93,19.93,0,0,0,.4,3.61,13.59,13.59,0,0,0,13.21,10.31c9.31,0,14.72-7.61,14.72-18.72,0-9.71-5.11-18-14.42-18a14.05,14.05,0,0,0-13.31,10.91,14.27,14.27,0,0,0-.6,3.6Z" transform="translate(-211.71 -304.46)"/></svg>